<svg width="150" height="77" version="1.1" xmlns="http://www.w3.org/2000/svg" desc="Created with imagetracer.js version 1.2.6" ><path fill="rgb(0,0,0)" stroke="rgb(0,0,0)" stroke-width="1" opacity="0" d="M 0 0 L 170 0 L 170 87 L 0 87 L 0 0 Z M 35 15 L 29 17 L 23 25 L 24 36 L 32 45 Q 31 47 34 46 L 38 54 L 36 62 L 32 65 L 28 64 Q 25 65 26 62 L 24 62 Q 22 58 23 49 L 22 47 Q 15 46 13 50 Q 11 62 17 67 Q 19 66 18 69 L 23 71 L 37 71 L 41 69 L 44 67 L 46 65 L 49 57 L 46 47 L 36 36 L 33 30 L 34 25 L 39 21 L 43 23 L 44 27 L 44 29 Q 43 32 46 31 L 48 31 L 52 32 L 54 28 L 52 21 Q 48 13 35 15 Z M 63 16 L 53 41 L 50 57 L 47 65 L 47 70 L 50 71 L 52 70 L 54 71 L 57 70 L 62 51 L 68 45 Q 70 46 69 43 L 71 43 L 70 50 L 70 52 L 67 61 Q 65 69 70 71 Q 79 73 83 68 L 83 70 L 86 71 Q 94 72 98 69 Q 97 66 100 67 L 106 58 L 107 68 L 112 71 L 121 71 L 129 66 L 130 69 L 134 71 Q 143 73 147 69 Q 154 64 157 55 L 156 51 L 154 52 L 152 51 L 147 59 L 141 65 L 138 64 L 139 53 L 139 51 L 141 44 L 143 42 L 151 42 Q 153 41 152 38 Q 150 34 144 36 L 149 20 L 146 17 L 144 18 L 141 17 L 132 36 Q 127 34 128 38 L 128 40 Q 127 43 131 41 Q 130 53 123 62 L 117 65 L 116 63 Q 117 53 123 49 L 122 43 L 115 35 L 115 29 L 113 28 Q 106 27 105 31 L 106 36 Q 105 52 96 61 Q 97 63 94 62 L 94 64 L 92 64 L 98 46 L 99 39 Q 97 35 91 37 L 86 48 L 86 52 L 82 60 L 77 64 L 82 46 L 81 38 L 75 36 L 73 36 L 68 37 L 65 39 L 72 18 L 71 16 L 63 16 Z M 93 27 L 90 31 L 91 34 Q 93 37 100 35 Q 103 34 102 28 Q 99 26 93 27 Z " /><path fill="rgb(0,0,0)" stroke="rgb(0,0,0)" stroke-width="1" opacity="0" d="M 112.5 43 L 113 45.5 L 107.5 55 L 108 53.5 L 112.5 43 Z " /><path fill="rgb(182,53,58)" stroke="rgb(182,53,58)" stroke-width="1" opacity="0.9568627450980393" d="M 43.5 16 L 47 17.5 L 45.5 18 L 43.5 16 Z " /><path fill="rgb(182,53,58)" stroke="rgb(182,53,58)" stroke-width="1" opacity="0.9568627450980393" d="M 32.5 18 L 31.5 20 Q 29.3 19.3 30 21.5 L 27.5 26 L 27 23.5 L 30.5 19 L 32.5 18 Z " /><path fill="rgb(182,53,58)" stroke="rgb(182,53,58)" stroke-width="1" opacity="0.9568627450980393" d="M 48.5 18 L 49.5 20 L 48.5 18 Z " /><path fill="rgb(182,53,58)" stroke="rgb(182,53,58)" stroke-width="1" opacity="0.9568627450980393" d="M 142.5 18 L 146 18.5 L 142.5 21 L 142.5 18 Z " /><path fill="rgb(182,53,58)" stroke="rgb(182,53,58)" stroke-width="1" opacity="0.9568627450980393" d="M 147.5 19 L 148 21.5 L 147 21.5 L 147.5 19 Z " /><path fill="rgb(182,53,58)" stroke="rgb(182,53,58)" stroke-width="1" opacity="0.9568627450980393" d="M 36.5 20 L 40 20.5 L 36.5 21 L 36.5 20 Z " /><path fill="rgb(182,53,58)" stroke="rgb(182,53,58)" stroke-width="1" opacity="0.9568627450980393" d="M 141.5 22 L 142 23.5 L 139.5 29 L 139 27.5 L 141.5 22 Z " /><path fill="rgb(182,53,58)" stroke="rgb(182,53,58)" stroke-width="1" opacity="0.9568627450980393" d="M 32.5 25 Q 31.8 31.7 35 34.5 L 33 33.5 Q 30.7 30.6 32.5 25 Z " /><path fill="rgb(182,53,58)" stroke="rgb(182,53,58)" stroke-width="1" opacity="0.9568627450980393" d="M 47.5 27 L 49.5 30 L 51.5 29 L 51.5 30 L 49.5 31 L 47.5 27 Z " /><path fill="rgb(182,53,58)" stroke="rgb(182,53,58)" stroke-width="1" opacity="0.9568627450980393" d="M 133.5 35 L 133 36.5 L 132.5 40 L 131 36 L 133.5 35 Z " /><path fill="rgb(182,53,58)" stroke="rgb(182,53,58)" stroke-width="1" opacity="0.9568627450980393" d="M 142.5 35 L 144 37.5 L 142 36.5 L 142.5 35 Z " /><path fill="rgb(182,53,58)" stroke="rgb(182,53,58)" stroke-width="1" opacity="0.9568627450980393" d="M 29.5 36 L 32 39.5 L 30 38.5 L 29.5 36 Z " /><path fill="rgb(182,53,58)" stroke="rgb(182,53,58)" stroke-width="1" opacity="0.9568627450980393" d="M 35.5 36 L 39.5 41 L 35.5 36 Z " /><path fill="rgb(182,53,58)" stroke="rgb(182,53,58)" stroke-width="1" opacity="0.9568627450980393" d="M 148.5 37 Q 153.1 35.8 151 41 L 149 40.5 L 150 38 L 148.5 37 Z " /><path fill="rgb(182,53,58)" stroke="rgb(182,53,58)" stroke-width="1" opacity="0.9568627450980393" d="M 33.5 41 L 38.5 47 L 33.5 41 Z " /><path fill="rgb(182,53,58)" stroke="rgb(182,53,58)" stroke-width="1" opacity="0.9568627450980393" d="M 134.5 43 L 135 46.5 L 133.5 49 L 133 47.5 L 134.5 43 Z " /><path fill="rgb(182,53,58)" stroke="rgb(182,53,58)" stroke-width="1" opacity="0.9568627450980393" d="M 42.5 44 L 47 51.5 L 46 51.5 L 42.5 44 Z " /><path fill="rgb(182,53,58)" stroke="rgb(182,53,58)" stroke-width="1" opacity="0.9568627450980393" d="M 18 48 L 22 48 L 22 49.5 L 20.5 49 L 18 50.5 L 17.5 53 L 17 50.5 L 18 48 Z " /><path fill="rgb(182,53,58)" stroke="rgb(182,53,58)" stroke-width="1" opacity="0.9568627450980393" d="M 39.5 48 L 40.5 50 L 39.5 48 Z " /><path fill="rgb(182,53,58)" stroke="rgb(182,53,58)" stroke-width="1" opacity="0.9568627450980393" d="M 138.5 48 L 139 50.5 L 138 50.5 L 138.5 48 Z " /><path fill="rgb(182,53,58)" stroke="rgb(182,53,58)" stroke-width="1" opacity="0.9568627450980393" d="M 132.5 51 L 133 54.5 L 131.5 61 L 131 53.5 L 132.5 51 Z " /><path fill="rgb(182,53,58)" stroke="rgb(182,53,58)" stroke-width="1" opacity="0.9568627450980393" d="M 41.5 52 L 42 59.5 L 38.5 64 L 40 61.5 L 41.5 52 Z " /><path fill="rgb(182,53,58)" stroke="rgb(182,53,58)" stroke-width="1" opacity="0.9568627450980393" d="M 153 52 L 156 52.5 L 155.5 55 L 154 54.5 L 155 56.5 L 152 57.5 L 154 58.5 L 145.5 69 L 144 68.5 L 150 63.5 L 152 59.5 L 149 60.5 Q 153.6 57.8 153 52 Z " /><path fill="rgb(182,53,58)" stroke="rgb(182,53,58)" stroke-width="1" opacity="0.9568627450980393" d="M 21.5 53 L 22 56.5 L 21 56.5 L 21.5 53 Z " /><path fill="rgb(182,53,58)" stroke="rgb(182,53,58)" stroke-width="1" opacity="0.9568627450980393" d="M 17.5 59 L 20 64.5 L 18 63.5 L 17.5 59 Z " /><path fill="rgb(182,53,58)" stroke="rgb(182,53,58)" stroke-width="1" opacity="0.9568627450980393" d="M 46.5 60 L 46 61.5 L 44.5 65 L 44 63.5 L 46.5 60 Z " /><path fill="rgb(182,53,58)" stroke="rgb(182,53,58)" stroke-width="1" opacity="0.9568627450980393" d="M 23.5 62 L 25.5 65 L 23.5 62 Z " /><path fill="rgb(182,53,58)" stroke="rgb(182,53,58)" stroke-width="1" opacity="0.9568627450980393" d="M 132.5 63 L 134 67.5 L 133 67.5 L 132.5 63 Z " /><path fill="rgb(182,53,58)" stroke="rgb(182,53,58)" stroke-width="1" opacity="0.9568627450980393" d="M 31.5 65 Q 33.8 64.3 33 66.5 L 31.5 65 Z " /><path fill="rgb(182,53,58)" stroke="rgb(182,53,58)" stroke-width="1" opacity="0.9568627450980393" d="M 20.5 66 L 25 68.5 L 23.5 68 Q 19.8 67.8 20.5 66 Z " /><path fill="rgb(182,53,58)" stroke="rgb(182,53,58)" stroke-width="1" opacity="0.9568627450980393" d="M 42.5 66 L 41.5 68 L 40 67.5 L 42.5 66 Z " /><path fill="rgb(182,53,58)" stroke="rgb(182,53,58)" stroke-width="1" opacity="0.9568627450980393" d="M 38.5 68 L 37.5 70 L 35 69.5 L 38.5 68 Z " /><path fill="rgb(228,38,45)" stroke="rgb(228,38,45)" stroke-width="1" opacity="0.9921568627450981" d="M 35.5 17 L 41.5 17 L 49 20 L 49.5 22 L 50.5 20 L 51 21.5 L 50 23.5 L 51 28 Q 46.9 29.7 48 25.5 L 43.5 20 L 35.5 19 L 33 20.5 L 36 21.5 L 31 24.5 L 32 33.5 L 38.5 42 L 40 41.5 L 39.5 43 Q 41.8 42.3 41 44.5 Q 46 48.5 46 57.5 L 42 66 L 32.5 69 L 28.5 69 L 25.5 69 Q 24.2 65.3 20 66 L 17 58.5 L 17 53.5 L 19.5 49 L 21 52.5 L 20 54.5 L 21 56.5 L 20 58.5 L 25.5 67 L 27.5 67 L 36.5 66 L 41 61.5 L 42 52.5 L 39 46.5 L 29 35.5 Q 26.4 32.6 27 26.5 L 30 20 L 35.5 17 Z " /><path fill="rgb(228,38,45)" stroke="rgb(228,38,45)" stroke-width="1" opacity="0.9921568627450981" d="M 144.5 20 Q 147.1 19.2 146 22.5 L 142 31.5 L 141 37.5 L 142 40.5 L 139 41.5 Q 138.6 50.1 135 55.5 L 136 58.5 L 136 60.5 L 136.5 65 L 138 64.5 Q 135.8 65.8 138.5 67 L 140.5 67 L 144 66 Q 145.3 69.7 139.5 68 L 135.5 68 Q 132.9 68.8 134 65.5 Q 130.6 62.9 132 55.5 Q 134.2 54.3 133 49.5 L 135 46.5 L 135 40 Q 132.3 41.1 133 38.5 L 138 34.5 L 141 24 L 143 23.5 L 142 21 L 144.5 20 Z " /><path fill="rgb(228,38,45)" stroke="rgb(228,38,45)" stroke-width="1" opacity="0.9921568627450981" d="M 143.5 38 L 145.5 38 L 149 38.5 Q 147.6 41.3 143 40 L 143.5 38 Z " /><path fill="rgb(228,38,45)" stroke="rgb(228,38,45)" stroke-width="1" opacity="0.9921568627450981" d="M 153.5 56 L 152.5 58 L 153.5 56 Z " /><path fill="rgb(228,38,45)" stroke="rgb(228,38,45)" stroke-width="1" opacity="0.9921568627450981" d="M 150.5 60 L 149 62.5 L 145.5 67 L 145 65.5 L 148 64 L 150.5 60 Z " /><path fill="rgb(26,8,9)" stroke="rgb(26,8,9)" stroke-width="1" opacity="0.9882352941176471" d="M 33.5 16 L 35 16.5 L 27 22.5 L 26 31.5 L 32 42 Q 34.7 40.9 34 43.5 L 41 51.5 L 41 58.5 L 36.5 65 L 33.5 66 L 34.5 64 Q 36.8 64.8 36 62.5 L 38 60.5 L 38 51.5 L 25 35.5 L 23 28.5 L 25 21.5 L 28.5 18 L 33.5 16 Z " /><path fill="rgb(26,8,9)" stroke="rgb(26,8,9)" stroke-width="1" opacity="0.9882352941176471" d="M 62 17 Q 65.8 15.5 65 18.5 L 57 39.5 L 50 68.5 L 50.5 70 L 48 68.5 L 48 63.5 L 53 43.5 L 55 40.5 L 62 17 Z " /><path fill="rgb(26,8,9)" stroke="rgb(26,8,9)" stroke-width="1" opacity="0.9882352941176471" d="M 141.5 18 L 142 20.5 L 135.5 36 Q 132.9 36.8 134 33.5 L 139 19 L 141.5 18 Z " /><path fill="rgb(26,8,9)" stroke="rgb(26,8,9)" stroke-width="1" opacity="0.9882352941176471" d="M 41.5 20 L 47 24.5 L 48 29.5 L 45 30 L 44 23.5 L 41.5 20 Z " /><path fill="rgb(26,8,9)" stroke="rgb(26,8,9)" stroke-width="1" opacity="0.9882352941176471" d="M 94.5 27 Q 97.1 26.3 96 29 Q 92.7 27.7 94 32.5 L 95 34.5 L 93.5 34 Q 91.3 34.8 92 32.5 L 91 30.5 L 94.5 27 Z " /><path fill="rgb(26,8,9)" stroke="rgb(26,8,9)" stroke-width="1" opacity="0.9882352941176471" d="M 108.5 29 L 110 29.5 L 108 33.5 L 110 39.5 L 102 58.5 L 94.5 66 L 93 65.5 L 100 57.5 L 104 49.5 L 107 36.5 L 105 32.5 L 106 30 L 108.5 29 Z " /><path fill="rgb(26,8,9)" stroke="rgb(26,8,9)" stroke-width="1" opacity="0.9882352941176471" d="M 100.5 31 L 99.5 33 L 100.5 31 Z " /><path fill="rgb(26,8,9)" stroke="rgb(26,8,9)" stroke-width="1" opacity="0.9882352941176471" d="M 129.5 36 L 131 36 L 131 40 L 128 38.5 L 129.5 36 Z " /><path fill="rgb(26,8,9)" stroke="rgb(26,8,9)" stroke-width="1" opacity="0.9882352941176471" d="M 69.5 37 L 73 37.5 L 64 43.5 L 63.5 45 Q 60.7 43.8 63 42.5 Q 62.3 40.3 64.5 41 L 69.5 37 Z " /><path fill="rgb(26,8,9)" stroke="rgb(26,8,9)" stroke-width="1" opacity="0.9882352941176471" d="M 90 38 Q 93.8 36.5 93 39.5 L 88 55.5 L 79.5 66 L 78 65.5 L 86 54.5 L 90 38 Z " /><path fill="rgb(26,8,9)" stroke="rgb(26,8,9)" stroke-width="1" opacity="0.9882352941176471" d="M 112.5 40 L 117 45.5 L 110 56.5 L 109 63.5 L 112.5 69 L 115 69.5 L 111.5 70 L 107 66.5 L 106 60.5 L 114 44.5 Q 110.9 43.4 112.5 40 Z " /><path fill="rgb(26,8,9)" stroke="rgb(26,8,9)" stroke-width="1" opacity="0.9882352941176471" d="M 132.5 40 Q 135 41 134 45.5 Q 131.1 59.1 121.5 66 L 119 65.5 L 125 60.5 L 129 53.5 L 132.5 40 Z " /><path fill="rgb(26,8,9)" stroke="rgb(26,8,9)" stroke-width="1" opacity="0.9882352941176471" d="M 71.5 42 Q 74.8 40.9 74 43.5 L 75 46.5 L 73 50.5 L 70 66.5 L 71 69 L 73 69.5 L 70.5 70 Q 66.5 69.5 67 64.5 L 72 47.5 L 72 43.5 L 71.5 42 Z " /><path fill="rgb(26,8,9)" stroke="rgb(26,8,9)" stroke-width="1" opacity="0.9882352941176471" d="M 16.5 48 Q 18.8 47.3 18 49.5 Q 15.2 52.2 16 58.5 Q 16.9 65.1 21.5 68 L 26 69.5 L 23.5 70 L 17 66.5 Q 12.1 62.4 14 51.5 L 16.5 48 Z " /><path fill="rgb(26,8,9)" stroke="rgb(26,8,9)" stroke-width="1" opacity="0.9882352941176471" d="M 151.5 52 Q 154.3 53.2 152 54.5 Q 149.8 61.3 144.5 65 L 141.5 66 L 142.5 64 L 145 62.5 L 151.5 52 Z " /><path fill="rgb(26,8,9)" stroke="rgb(26,8,9)" stroke-width="1" opacity="0.9882352941176471" d="M 130.5 61 Q 130.8 66.7 134.5 69 L 136 69.5 L 133.5 70 L 130 68 L 129 62.5 L 130.5 61 Z " /><path fill="rgb(26,8,9)" stroke="rgb(26,8,9)" stroke-width="1" opacity="0.9882352941176471" d="M 84 65 Q 87 63.8 86 67.5 L 87.5 70 L 84 68.5 L 84 65 Z " /><path fill="rgb(190,20,27)" stroke="rgb(190,20,27)" stroke-width="1" opacity="0.996078431372549" d="M 35.5 16 L 42.5 16 L 50 20.5 Q 52.8 23.5 52 29 L 49.5 30 L 49 28 Q 52.3 29.3 51 24.5 L 49 20 Q 46.3 18.9 47 21.5 L 46.5 24 L 42 20.5 L 43.5 20 L 46 21.5 L 47 19.5 L 42.5 18 L 40.5 21 L 36.5 20 Q 31.1 22.6 31.5 31 L 31 24.5 Q 35.3 22.2 33.5 20 L 40.5 19 L 42 17.5 L 35.5 17 L 35.5 16 Z " /><path fill="rgb(190,20,27)" stroke="rgb(190,20,27)" stroke-width="1" opacity="0.996078431372549" d="M 142.5 19 L 144.5 19 Q 148.7 17.7 147 22.5 L 142 36.5 L 143 40 Q 148.1 41.3 149.5 38 L 150 39.5 L 148.5 41 L 142 41 L 141 35.5 L 146 20 L 143.5 21 L 142.5 19 Z " /><path fill="rgb(190,20,27)" stroke="rgb(190,20,27)" stroke-width="1" opacity="0.996078431372549" d="M 26.5 25 L 27 27.5 L 26 27.5 L 26.5 25 Z " /><path fill="rgb(190,20,27)" stroke="rgb(190,20,27)" stroke-width="1" opacity="0.996078431372549" d="M 26.5 29 L 27 31.5 L 26 31.5 L 26.5 29 Z " /><path fill="rgb(190,20,27)" stroke="rgb(190,20,27)" stroke-width="1" opacity="0.996078431372549" d="M 32.5 32 L 39 42 L 42 43.5 L 47 52.5 L 47 59.5 L 41.5 67 Q 36.7 71.2 26.5 70 L 26.5 69 L 29.5 68 L 33.5 68 Q 39.7 68.6 42 66 Q 45.8 62 46 53.5 L 41.5 45 L 40 45.5 L 41 43 L 38.5 44 Q 40.3 41.5 35.5 39 L 34 39.5 L 35 37.5 L 32 33.5 L 32.5 32 Z " /><path fill="rgb(190,20,27)" stroke="rgb(190,20,27)" stroke-width="1" opacity="0.996078431372549" d="M 27.5 33 L 30 37.5 L 28 36.5 L 27.5 33 Z " /><path fill="rgb(190,20,27)" stroke="rgb(190,20,27)" stroke-width="1" opacity="0.996078431372549" d="M 136.5 35 L 135.5 37 L 133.5 38 L 133 36 L 136.5 35 Z " /><path fill="rgb(190,20,27)" stroke="rgb(190,20,27)" stroke-width="1" opacity="0.996078431372549" d="M 144 37 L 148 37.5 L 144.5 39 L 144 37 Z " /><path fill="rgb(190,20,27)" stroke="rgb(190,20,27)" stroke-width="1" opacity="0.996078431372549" d="M 133.5 40 Q 136.1 39.2 135 42.5 L 134 42.5 L 133.5 40 Z " /><path fill="rgb(190,20,27)" stroke="rgb(190,20,27)" stroke-width="1" opacity="0.996078431372549" d="M 140.5 40 L 140 41.5 L 138.5 48 L 138 45.5 L 140.5 40 Z " /><path fill="rgb(190,20,27)" stroke="rgb(190,20,27)" stroke-width="1" opacity="0.996078431372549" d="M 34.5 43 L 38.5 48 L 34.5 43 Z " /><path fill="rgb(190,20,27)" stroke="rgb(190,20,27)" stroke-width="1" opacity="0.996078431372549" d="M 20.5 49 L 22 52.5 L 19.5 56 L 20 54.5 L 21 51.5 L 20.5 49 Z " /><path fill="rgb(190,20,27)" stroke="rgb(190,20,27)" stroke-width="1" opacity="0.996078431372549" d="M 39.5 49 L 40.5 51 L 39.5 49 Z " /><path fill="rgb(190,20,27)" stroke="rgb(190,20,27)" stroke-width="1" opacity="0.996078431372549" d="M 137.5 49 L 138 52.5 L 137 53.5 L 137 65 Q 139.7 63.9 139 66.5 L 136 64.5 L 135 59.5 L 136 56.5 L 136 54.5 L 137.5 49 Z " /><path fill="rgb(190,20,27)" stroke="rgb(190,20,27)" stroke-width="1" opacity="0.996078431372549" d="M 16.5 53 L 17 58.5 L 16 58.5 L 16.5 53 Z " /><path fill="rgb(190,20,27)" stroke="rgb(190,20,27)" stroke-width="1" opacity="0.996078431372549" d="M 155.5 53 L 155 54.5 L 154.5 56 L 154 54.5 L 155.5 53 Z " /><path fill="rgb(190,20,27)" stroke="rgb(190,20,27)" stroke-width="1" opacity="0.996078431372549" d="M 20 57 Q 23.3 55.7 22 60.5 L 25.5 65 L 32 66.5 L 26.5 68 Q 20.6 64.4 20 57 Z " /><path fill="rgb(190,20,27)" stroke="rgb(190,20,27)" stroke-width="1" opacity="0.996078431372549" d="M 150.5 58 L 152 60.5 L 145.5 68 Q 142.6 70.6 136.5 70 L 137.5 68 L 139.5 68 Q 144.9 69.9 144 66.5 L 143.5 65 L 145.5 67 L 149 63.5 L 148.5 62 L 145 64.5 L 148.5 61 Q 149.8 63.3 151 60.5 L 150.5 59 L 149 59.5 L 150.5 58 Z " /><path fill="rgb(190,20,27)" stroke="rgb(190,20,27)" stroke-width="1" opacity="0.996078431372549" d="M 131.5 61 L 132 63.5 L 131 63.5 L 131.5 61 Z " /><path fill="rgb(190,20,27)" stroke="rgb(190,20,27)" stroke-width="1" opacity="0.996078431372549" d="M 18.5 64 L 19.5 66 L 18.5 64 Z " /><path fill="rgb(190,20,27)" stroke="rgb(190,20,27)" stroke-width="1" opacity="0.996078431372549" d="M 37.5 64 L 38.5 66 L 37.5 64 Z " /><path fill="rgb(190,20,27)" stroke="rgb(190,20,27)" stroke-width="1" opacity="0.996078431372549" d="M 22.5 66 L 21.5 68 L 22.5 66 Z " /><path fill="rgb(84,83,84)" stroke="rgb(84,83,84)" stroke-width="1" opacity="0.9529411764705882" d="M 63.5 16 L 71 17 L 64 39.5 L 66 39.5 L 63 41 L 62 43.5 L 64 44.5 L 67.5 40 L 73.5 37 L 76.5 37 L 81 40.5 L 81 48.5 L 76 64.5 L 77.5 65 L 81 62.5 L 78.5 66 L 85 60.5 L 89 53.5 L 93 38 L 91 37.5 L 92.5 37 L 98 38 L 97 46.5 L 91 62.5 L 92.5 65 L 97 61.5 L 93.5 66 L 102 58.5 L 108 45.5 L 110 37.5 L 108 31.5 Q 109.3 28 114 29 L 115 36.5 Q 121.3 39.3 123 46.5 L 116 57.5 L 116 64.5 Q 117 67 121.5 66 L 130.5 55 L 131 60.5 L 123.5 69 L 114.5 71 L 114.5 69 Q 110.5 69.5 110 66.5 L 109 59.5 L 117 45.5 L 112.5 40 Q 108 57 97.5 68 L 94.5 70 L 86.5 71 L 86.5 70 L 88 69.5 Q 85.3 68.4 86 65 Q 82.7 63.9 84 68 L 81.5 68 L 79.5 70 L 71.5 71 L 71.5 70 L 73 69.5 L 71 69 L 70 63.5 L 75 44.5 L 74 42 L 71 42.5 L 72 44.5 L 71 44.5 Q 71.8 41.9 68.5 43 L 60 53.5 L 57 69 L 51.5 70 L 50 67.5 L 57 39.5 L 65 17 L 63.5 16 Z " /><path fill="rgb(84,83,84)" stroke="rgb(84,83,84)" stroke-width="1" opacity="0.9529411764705882" d="M 42.5 22 L 43.5 24 L 42.5 22 Z " /><path fill="rgb(84,83,84)" stroke="rgb(84,83,84)" stroke-width="1" opacity="0.9529411764705882" d="M 23.5 25 L 24 27.5 L 23 27.5 L 23.5 25 Z " /><path fill="rgb(84,83,84)" stroke="rgb(84,83,84)" stroke-width="1" opacity="0.9529411764705882" d="M 93.5 27 L 91.5 30 L 93.5 27 Z " /><path fill="rgb(84,83,84)" stroke="rgb(84,83,84)" stroke-width="1" opacity="0.9529411764705882" d="M 96 27 Q 99.8 26.3 101 29.5 L 100 31.5 Q 102.8 33.2 98.5 35 Q 94.1 36.5 95 33.5 L 94 29 Q 97 30 96 27 Z " /><path fill="rgb(84,83,84)" stroke="rgb(84,83,84)" stroke-width="1" opacity="0.9529411764705882" d="M 55.5 35 L 56 37.5 L 55 37.5 L 55.5 35 Z " /><path fill="rgb(84,83,84)" stroke="rgb(84,83,84)" stroke-width="1" opacity="0.9529411764705882" d="M 26.5 37 L 27.5 39 L 26.5 37 Z " /><path fill="rgb(84,83,84)" stroke="rgb(84,83,84)" stroke-width="1" opacity="0.9529411764705882" d="M 68.5 37 L 67.5 39 L 68.5 37 Z " /><path fill="rgb(84,83,84)" stroke="rgb(84,83,84)" stroke-width="1" opacity="0.9529411764705882" d="M 31.5 43 L 32.5 45 L 31.5 43 Z " /><path fill="rgb(84,83,84)" stroke="rgb(84,83,84)" stroke-width="1" opacity="0.9529411764705882" d="M 34.5 46 L 35.5 48 L 34.5 46 Z " /><path fill="rgb(84,83,84)" stroke="rgb(84,83,84)" stroke-width="1" opacity="0.9529411764705882" d="M 15.5 48 L 15 49.5 L 14.5 51 L 14 49.5 L 15.5 48 Z " /><path fill="rgb(84,83,84)" stroke="rgb(84,83,84)" stroke-width="1" opacity="0.9529411764705882" d="M 112.5 48 L 111.5 50 L 112.5 48 Z " /><path fill="rgb(84,83,84)" stroke="rgb(84,83,84)" stroke-width="1" opacity="0.9529411764705882" d="M 150.5 53 L 150 54.5 L 149.5 56 L 149 54.5 L 150.5 53 Z " /><path fill="rgb(84,83,84)" stroke="rgb(84,83,84)" stroke-width="1" opacity="0.9529411764705882" d="M 13.5 54 L 14 58.5 L 13 58.5 L 13.5 54 Z " /><path fill="rgb(84,83,84)" stroke="rgb(84,83,84)" stroke-width="1" opacity="0.9529411764705882" d="M 84.5 56 L 83.5 58 L 84.5 56 Z " /><path fill="rgb(84,83,84)" stroke="rgb(84,83,84)" stroke-width="1" opacity="0.9529411764705882" d="M 99.5 57 L 98.5 59 L 99.5 57 Z " /><path fill="rgb(84,83,84)" stroke="rgb(84,83,84)" stroke-width="1" opacity="0.9529411764705882" d="M 147.5 58 L 146.5 60 L 147.5 58 Z " /><path fill="rgb(84,83,84)" stroke="rgb(84,83,84)" stroke-width="1" opacity="0.9529411764705882" d="M 124.5 60 L 123.5 62 L 124.5 60 Z " /><path fill="rgb(84,83,84)" stroke="rgb(84,83,84)" stroke-width="1" opacity="0.9529411764705882" d="M 144.5 62 L 143.5 64 L 144.5 62 Z " /><path fill="rgb(84,83,84)" stroke="rgb(84,83,84)" stroke-width="1" opacity="0.9529411764705882" d="M 121.5 63 L 120.5 65 L 121.5 63 Z " /><path fill="rgb(84,83,84)" stroke="rgb(84,83,84)" stroke-width="1" opacity="0.9529411764705882" d="M 15.5 64 L 16.5 66 L 15.5 64 Z " /><path fill="rgb(84,83,84)" stroke="rgb(84,83,84)" stroke-width="1" opacity="0.9529411764705882" d="M 47.5 67 L 49 69.5 L 47 68.5 L 47.5 67 Z " /><path fill="rgb(84,83,84)" stroke="rgb(84,83,84)" stroke-width="1" opacity="0.9529411764705882" d="M 68.5 68 L 69.5 70 L 68.5 68 Z " /><path fill="rgb(84,83,84)" stroke="rgb(84,83,84)" stroke-width="1" opacity="0.9529411764705882" d="M 109.5 68 L 110.5 70 L 109.5 68 Z " /><path fill="rgb(84,83,84)" stroke="rgb(84,83,84)" stroke-width="1" opacity="0.9529411764705882" d="M 131.5 68 L 132.5 70 L 131.5 68 Z " /><path fill="rgb(205,181,182)" stroke="rgb(205,181,182)" stroke-width="1" opacity="0.2823529411764706" d="M 34.5 15 Q 48.1 12.9 52 20.5 L 54 27.5 L 51.5 32 L 48 30.5 L 50.5 30 L 52 29.5 L 52 22.5 L 48.5 18 Q 44.2 14.3 34.5 16 L 34.5 15 Z " /><path fill="rgb(205,181,182)" stroke="rgb(205,181,182)" stroke-width="1" opacity="0.2823529411764706" d="M 62.5 16 L 62 17.5 L 61.5 19 L 61 17.5 L 62.5 16 Z " /><path fill="rgb(205,181,182)" stroke="rgb(205,181,182)" stroke-width="1" opacity="0.2823529411764706" d="M 66.5 16 Q 71 15 72 17.5 L 71.5 19 L 71 17 L 66.5 17 L 66.5 16 Z " /><path fill="rgb(205,181,182)" stroke="rgb(205,181,182)" stroke-width="1" opacity="0.2823529411764706" d="M 28.5 17 L 24.5 22 L 28.5 17 Z " /><path fill="rgb(205,181,182)" stroke="rgb(205,181,182)" stroke-width="1" opacity="0.2823529411764706" d="M 140.5 17 L 142 17.5 L 139.5 19 L 140.5 17 Z " /><path fill="rgb(205,181,182)" stroke="rgb(205,181,182)" stroke-width="1" opacity="0.2823529411764706" d="M 144.5 17 L 149 19.5 L 147.5 24 L 147 22.5 L 148 19 Q 143.8 19.1 144.5 17 Z " /><path fill="rgb(205,181,182)" stroke="rgb(205,181,182)" stroke-width="1" opacity="0.2823529411764706" d="M 36.5 21 L 38 21.5 L 34 24.5 L 33.5 26 L 33 24.5 L 36.5 21 Z " /><path fill="rgb(205,181,182)" stroke="rgb(205,181,182)" stroke-width="1" opacity="0.2823529411764706" d="M 39.5 21 L 42 22.5 L 40.5 22 L 39.5 21 Z " /><path fill="rgb(205,181,182)" stroke="rgb(205,181,182)" stroke-width="1" opacity="0.2823529411764706" d="M 69.5 23 L 70 24.5 L 68.5 27 L 68 25.5 L 69.5 23 Z " /><path fill="rgb(205,181,182)" stroke="rgb(205,181,182)" stroke-width="1" opacity="0.2823529411764706" d="M 92.5 27 L 91.5 29 L 92.5 27 Z " /><path fill="rgb(205,181,182)" stroke="rgb(205,181,182)" stroke-width="1" opacity="0.2823529411764706" d="M 99.5 27 L 102 28 Q 103.3 33.5 99.5 35 L 101 32.5 Q 101.5 27.8 99.5 27 Z " /><path fill="rgb(205,181,182)" stroke="rgb(205,181,182)" stroke-width="1" opacity="0.2823529411764706" d="M 107.5 28 L 113 28.5 Q 107.2 27.7 105.5 31 L 107.5 28 Z " /><path fill="rgb(205,181,182)" stroke="rgb(205,181,182)" stroke-width="1" opacity="0.2823529411764706" d="M 145.5 28 L 146 31.5 L 144 36 Q 150.1 34.3 152 37.5 Q 152.8 41.3 150.5 42 L 142.5 42 L 141 43.5 L 139.5 50 L 139 47.5 L 141 41 L 151 41 L 151 37 L 143 37 L 143 34.5 L 145.5 28 Z " /><path fill="rgb(205,181,182)" stroke="rgb(205,181,182)" stroke-width="1" opacity="0.2823529411764706" d="M 114.5 29 L 115 34.5 L 122 42.5 L 115 36.5 L 114.5 29 Z " /><path fill="rgb(205,181,182)" stroke="rgb(205,181,182)" stroke-width="1" opacity="0.2823529411764706" d="M 33.5 30 L 36 35.5 L 46 46.5 L 50 57.5 L 48 57.5 L 49 61.5 L 48 61.5 L 47 57.5 L 48 53.5 L 45 46.5 L 35 35.5 L 33.5 30 Z " /><path fill="rgb(205,181,182)" stroke="rgb(205,181,182)" stroke-width="1" opacity="0.2823529411764706" d="M 44.5 30 L 47 31.5 L 45.5 31 L 44.5 30 Z " /><path fill="rgb(205,181,182)" stroke="rgb(205,181,182)" stroke-width="1" opacity="0.2823529411764706" d="M 91.5 33 L 92.5 35 L 91.5 33 Z " /><path fill="rgb(205,181,182)" stroke="rgb(205,181,182)" stroke-width="1" opacity="0.2823529411764706" d="M 133.5 33 L 134 34.5 L 132 35.5 L 133.5 33 Z " /><path fill="rgb(205,181,182)" stroke="rgb(205,181,182)" stroke-width="1" opacity="0.2823529411764706" d="M 24.5 35 L 25.5 37 L 24.5 35 Z " /><path fill="rgb(205,181,182)" stroke="rgb(205,181,182)" stroke-width="1" opacity="0.2823529411764706" d="M 70.5 36 L 73 36.5 L 70.5 37 L 70.5 36 Z " /><path fill="rgb(205,181,182)" stroke="rgb(205,181,182)" stroke-width="1" opacity="0.2823529411764706" d="M 74.5 36 L 81 38 L 80.5 40 L 74.5 37 L 74.5 36 Z " /><path fill="rgb(205,181,182)" stroke="rgb(205,181,182)" stroke-width="1" opacity="0.2823529411764706" d="M 67.5 37 L 66.5 39 L 67.5 37 Z " /><path fill="rgb(205,181,182)" stroke="rgb(205,181,182)" stroke-width="1" opacity="0.2823529411764706" d="M 90.5 37 L 89.5 39 L 90.5 37 Z " /><path fill="rgb(205,181,182)" stroke="rgb(205,181,182)" stroke-width="1" opacity="0.2823529411764706" d="M 93.5 37 Q 98 36 99 38.5 L 98.5 42 L 98 38 L 93.5 38 L 93.5 37 Z " /><path fill="rgb(205,181,182)" stroke="rgb(205,181,182)" stroke-width="1" opacity="0.2823529411764706" d="M 26.5 38 L 30.5 43 L 26.5 38 Z " /><path fill="rgb(205,181,182)" stroke="rgb(205,181,182)" stroke-width="1" opacity="0.2823529411764706" d="M 53.5 40 L 54 42.5 L 53 42.5 L 53.5 40 Z " /><path fill="rgb(205,181,182)" stroke="rgb(205,181,182)" stroke-width="1" opacity="0.2823529411764706" d="M 81.5 41 L 82 45.5 L 81 45.5 L 81.5 41 Z " /><path fill="rgb(205,181,182)" stroke="rgb(205,181,182)" stroke-width="1" opacity="0.2823529411764706" d="M 68.5 43 L 69 45 L 62.5 50 L 68.5 43 Z " /><path fill="rgb(205,181,182)" stroke="rgb(205,181,182)" stroke-width="1" opacity="0.2823529411764706" d="M 97.5 43 L 98 45.5 L 97 45.5 L 97.5 43 Z " /><path fill="rgb(205,181,182)" stroke="rgb(205,181,182)" stroke-width="1" opacity="0.2823529411764706" d="M 113.5 45 L 113 46.5 L 111.5 49 L 112 47.5 L 113.5 45 Z " /><path fill="rgb(205,181,182)" stroke="rgb(205,181,182)" stroke-width="1" opacity="0.2823529411764706" d="M 15.5 47 Q 21.5 45.5 23 48.5 Q 21.6 58.1 24 62 L 26 62 Q 24.9 64.7 27.5 64 L 31 65.5 L 28.5 66 L 23 61.5 L 22 59.5 L 22 48 L 15.5 48 L 14 49.5 L 13.5 54 L 13 49.5 L 15.5 47 Z " /><path fill="rgb(205,181,182)" stroke="rgb(205,181,182)" stroke-width="1" opacity="0.2823529411764706" d="M 34.5 47 L 38 52.5 L 36 51.5 L 34.5 47 Z " /><path fill="rgb(205,181,182)" stroke="rgb(205,181,182)" stroke-width="1" opacity="0.2823529411764706" d="M 86.5 47 L 87 49.5 L 86 49.5 L 86.5 47 Z " /><path fill="rgb(205,181,182)" stroke="rgb(205,181,182)" stroke-width="1" opacity="0.2823529411764706" d="M 122.5 47 L 123 48.5 L 121 49.5 L 122.5 47 Z " /><path fill="rgb(205,181,182)" stroke="rgb(205,181,182)" stroke-width="1" opacity="0.2823529411764706" d="M 70.5 48 L 71 49.5 L 69 50.5 L 70.5 48 Z " /><path fill="rgb(205,181,182)" stroke="rgb(205,181,182)" stroke-width="1" opacity="0.2823529411764706" d="M 61.5 51 L 62 52.5 L 60.5 55 L 60 53.5 L 61.5 51 Z " /><path fill="rgb(205,181,182)" stroke="rgb(205,181,182)" stroke-width="1" opacity="0.2823529411764706" d="M 108.5 51 L 109.5 53 L 108.5 51 Z " /><path fill="rgb(205,181,182)" stroke="rgb(205,181,182)" stroke-width="1" opacity="0.2823529411764706" d="M 128.5 51 L 129 52.5 L 127.5 55 L 127 53.5 L 128.5 51 Z " /><path fill="rgb(205,181,182)" stroke="rgb(205,181,182)" stroke-width="1" opacity="0.2823529411764706" d="M 138 51 L 140 51.5 L 138.5 55 L 138 51 Z " /><path fill="rgb(205,181,182)" stroke="rgb(205,181,182)" stroke-width="1" opacity="0.2823529411764706" d="M 151.5 51 L 153 51.5 L 149.5 54 L 151.5 51 Z " /><path fill="rgb(205,181,182)" stroke="rgb(205,181,182)" stroke-width="1" opacity="0.2823529411764706" d="M 154.5 51 L 156.5 52 L 158 51.5 Q 154.6 62.6 146.5 69 L 151 63.5 L 156 52 L 154.5 51 Z " /><path fill="rgb(205,181,182)" stroke="rgb(205,181,182)" stroke-width="1" opacity="0.2823529411764706" d="M 119.5 52 L 119 53.5 L 116.5 59 L 116 57.5 L 119.5 52 Z " /><path fill="rgb(205,181,182)" stroke="rgb(205,181,182)" stroke-width="1" opacity="0.2823529411764706" d="M 94.5 53 L 95 55.5 L 93.5 59 L 93 56.5 L 94.5 53 Z " /><path fill="rgb(205,181,182)" stroke="rgb(205,181,182)" stroke-width="1" opacity="0.2823529411764706" d="M 84.5 54 L 85 55.5 L 83 56.5 L 84.5 54 Z " /><path fill="rgb(205,181,182)" stroke="rgb(205,181,182)" stroke-width="1" opacity="0.2823529411764706" d="M 106.5 55 L 108 55.5 L 106 56.5 L 107 58.5 L 105 58.5 L 101.5 64 L 103 61.5 L 106.5 55 Z " /><path fill="rgb(205,181,182)" stroke="rgb(205,181,182)" stroke-width="1" opacity="0.2823529411764706" d="M 148.5 55 L 149 56.5 L 147 57.5 L 148.5 55 Z " /><path fill="rgb(205,181,182)" stroke="rgb(205,181,182)" stroke-width="1" opacity="0.2823529411764706" d="M 68.5 56 L 69 58.5 L 68 58.5 L 68.5 56 Z " /><path fill="rgb(205,181,182)" stroke="rgb(205,181,182)" stroke-width="1" opacity="0.2823529411764706" d="M 99.5 56 L 98.5 58 L 99.5 56 Z " /><path fill="rgb(205,181,182)" stroke="rgb(205,181,182)" stroke-width="1" opacity="0.2823529411764706" d="M 126.5 56 L 126 57.5 L 123.5 61 L 125 58.5 L 126.5 56 Z " /><path fill="rgb(205,181,182)" stroke="rgb(205,181,182)" stroke-width="1" opacity="0.2823529411764706" d="M 137.5 56 L 138 62.5 L 137 62.5 L 137.5 56 Z " /><path fill="rgb(205,181,182)" stroke="rgb(205,181,182)" stroke-width="1" opacity="0.2823529411764706" d="M 13.5 59 L 14 61.5 L 13 61.5 L 13.5 59 Z " /><path fill="rgb(205,181,182)" stroke="rgb(205,181,182)" stroke-width="1" opacity="0.2823529411764706" d="M 97.5 59 L 96.5 61 L 97.5 59 Z " /><path fill="rgb(205,181,182)" stroke="rgb(205,181,182)" stroke-width="1" opacity="0.2823529411764706" d="M 36.5 60 L 37 61.5 L 32.5 65 L 32.5 64 L 36 61.5 L 36.5 60 Z " /><path fill="rgb(205,181,182)" stroke="rgb(205,181,182)" stroke-width="1" opacity="0.2823529411764706" d="M 58.5 60 L 59 62.5 L 58 62.5 L 58.5 60 Z " /><path fill="rgb(205,181,182)" stroke="rgb(205,181,182)" stroke-width="1" opacity="0.2823529411764706" d="M 81.5 60 L 77.5 65 L 76 64.5 L 81.5 60 Z " /><path fill="rgb(205,181,182)" stroke="rgb(205,181,182)" stroke-width="1" opacity="0.2823529411764706" d="M 92.5 60 L 93 62.5 L 92 62.5 L 92.5 60 Z " /><path fill="rgb(205,181,182)" stroke="rgb(205,181,182)" stroke-width="1" opacity="0.2823529411764706" d="M 145.5 60 L 141.5 65 L 145.5 60 Z " /><path fill="rgb(205,181,182)" stroke="rgb(205,181,182)" stroke-width="1" opacity="0.2823529411764706" d="M 46.5 61 L 47 62.5 L 43.5 67 L 45 64.5 L 46.5 61 Z " /><path fill="rgb(205,181,182)" stroke="rgb(205,181,182)" stroke-width="1" opacity="0.2823529411764706" d="M 116.5 63 L 117 65 L 120.5 63 L 118.5 66 L 116 64.5 L 116.5 63 Z " /><path fill="rgb(205,181,182)" stroke="rgb(205,181,182)" stroke-width="1" opacity="0.2823529411764706" d="M 47.5 64 L 48 66.5 L 47 66.5 L 47.5 64 Z " /><path fill="rgb(205,181,182)" stroke="rgb(205,181,182)" stroke-width="1" opacity="0.2823529411764706" d="M 57.5 64 L 58 67.5 L 57 67.5 L 57.5 64 Z " /><path fill="rgb(205,181,182)" stroke="rgb(205,181,182)" stroke-width="1" opacity="0.2823529411764706" d="M 128.5 64 L 129 66 L 124.5 69 L 128.5 64 Z " /><path fill="rgb(205,181,182)" stroke="rgb(205,181,182)" stroke-width="1" opacity="0.2823529411764706" d="M 15.5 65 L 16.5 67 L 15.5 65 Z " /><path fill="rgb(205,181,182)" stroke="rgb(205,181,182)" stroke-width="1" opacity="0.2823529411764706" d="M 100.5 65 L 99.5 67 L 100.5 65 Z " /><path fill="rgb(205,181,182)" stroke="rgb(205,181,182)" stroke-width="1" opacity="0.2823529411764706" d="M 67.5 67 L 69.5 70 L 71 70.5 L 69.5 71 Q 65.9 69.9 67.5 67 Z " /><path fill="rgb(205,181,182)" stroke="rgb(205,181,182)" stroke-width="1" opacity="0.2823529411764706" d="M 107.5 67 L 109.5 70 L 107.5 67 Z " /><path fill="rgb(205,181,182)" stroke="rgb(205,181,182)" stroke-width="1" opacity="0.2823529411764706" d="M 18.5 68 L 21 69.5 L 19.5 69 L 18.5 68 Z " /><path fill="rgb(205,181,182)" stroke="rgb(205,181,182)" stroke-width="1" opacity="0.2823529411764706" d="M 40.5 68 L 42 68.5 L 38.5 70 L 38.5 69 L 40.5 68 Z " /><path fill="rgb(205,181,182)" stroke="rgb(205,181,182)" stroke-width="1" opacity="0.2823529411764706" d="M 81.5 68 L 80.5 70 L 81.5 68 Z " /><path fill="rgb(205,181,182)" stroke="rgb(205,181,182)" stroke-width="1" opacity="0.2823529411764706" d="M 96.5 68 L 98 68.5 L 95.5 70 L 96.5 68 Z " /><path fill="rgb(205,181,182)" stroke="rgb(205,181,182)" stroke-width="1" opacity="0.2823529411764706" d="M 130.5 68 L 131.5 70 L 130.5 68 Z " /><path fill="rgb(205,181,182)" stroke="rgb(205,181,182)" stroke-width="1" opacity="0.2823529411764706" d="M 144.5 69 L 143.5 71 L 137 70.5 L 144.5 69 Z " /><path fill="rgb(205,181,182)" stroke="rgb(205,181,182)" stroke-width="1" opacity="0.2823529411764706" d="M 22.5 70 L 37 70.5 L 22.5 71 L 22.5 70 Z " /><path fill="rgb(205,181,182)" stroke="rgb(205,181,182)" stroke-width="1" opacity="0.2823529411764706" d="M 74.5 70 L 79 70.5 L 74.5 71 L 74.5 70 Z " /><path fill="rgb(205,181,182)" stroke="rgb(205,181,182)" stroke-width="1" opacity="0.2823529411764706" d="M 89.5 70 L 94 70.5 L 89.5 71 L 89.5 70 Z " /><path fill="rgb(205,181,182)" stroke="rgb(205,181,182)" stroke-width="1" opacity="0.2823529411764706" d="M 111.5 70 L 114 70.5 L 111.5 71 L 111.5 70 Z " /><path fill="rgb(205,181,182)" stroke="rgb(205,181,182)" stroke-width="1" opacity="0.2823529411764706" d="M 116.5 70 L 121 70.5 L 116.5 71 L 116.5 70 Z " /></svg>
